<?xml version="1.0" standalone="no"?><!DOCTYPE svg PUBLIC "-//W3C//DTD SVG 1.1//EN" "http://www.w3.org/Graphics/SVG/1.1/DTD/svg11.dtd"><svg t="1716209109282" class="icon" viewBox="0 0 1024 1024" version="1.1" xmlns="http://www.w3.org/2000/svg" p-id="5409" xmlns:xlink="http://www.w3.org/1999/xlink" width="200" height="200"><path d="M501.682961 1004.082936C243.796815 1004.082936 33.990462 794.276583 33.990462 536.390437s209.806353-467.692499 467.692499-467.6925c30.325722 0 60.683311 2.931792 90.240234 8.711724 26.983638 5.278022 44.58634 31.433111 39.312301 58.424716-5.274039 26.991605-31.453028 44.606257-58.420732 39.312301a371.433328 371.433328 0 0 0-71.131803-6.859437c-202.9748 0-368.107179 165.132378-368.107179 368.107179s165.132378 368.107179 368.107179 368.107179c174.282278 0 325.974621-123.732769 360.694047-294.190971 5.493126-26.951771 31.783651-44.323434 58.727455-38.862175 26.951771 5.493126 44.343352 31.783651 38.854209 58.727455-44.124264 216.657823-236.85771 373.907028-458.275711 373.907028z" p-id="5410" fill="#333333"></path><path d="M501.682961 720.802533c-101.684579 0-184.412097-82.727517-184.412097-184.412096s82.727517-184.412097 184.412097-184.412097 184.412097 82.727517 184.412096 184.412097-82.723534 184.412097-184.412096 184.412096z m0-269.238872c-46.773233 0-84.826776 38.053543-84.826776 84.826776s38.053543 84.826776 84.826776 84.826776 84.826776-38.053543 84.826776-84.826776-38.053543-84.826776-84.826776-84.826776zM875.797126 234.308325V49.784693c0-27.497499-22.299145-49.79266-49.79266-49.79266-27.497499 0-49.79266 22.295162-49.79266 49.79266v184.523632c-38.77454 18.622455-65.610793 58.281313-65.610793 104.094544v76.290323c0 63.631036 51.768433 115.399469 115.403453 115.399469s115.407436-51.768433 115.407436-115.399469V338.402869c0-45.813231-26.840236-85.472089-65.614776-104.094544z m-33.970544 180.384867c0 8.719691-7.090475 15.814149-15.822116 15.814149a15.834066 15.834066 0 0 1-15.818133-15.814149V338.402869c0-8.719691 7.094458-15.818132 15.818133-15.818132s15.822116 7.094458 15.822116 15.818132v76.290323z" p-id="5411" fill="#333333"></path></svg>