<?xml version="1.0" standalone="no"?><!DOCTYPE svg PUBLIC "-//W3C//DTD SVG 1.1//EN" "http://www.w3.org/Graphics/SVG/1.1/DTD/svg11.dtd"><svg t="1716103087031" class="icon" viewBox="0 0 1024 1024" version="1.1" xmlns="http://www.w3.org/2000/svg" p-id="18707" xmlns:xlink="http://www.w3.org/1999/xlink" width="200" height="200"><path d="M188.235 908.047c-28.611-24.094-54.211-49.694-78.306-78.306l78.306 78.306z" fill="#F77123" p-id="18708"></path><path d="M222.87 935.153c-12.046-7.53-22.588-16.565-34.635-25.6l-78.306-78.306c-9.035-10.541-16.564-21.082-22.588-33.13l135.53 137.036z" fill="#F76E1E" p-id="18709"></path><path d="M248.47 950.212c-9.035-4.518-15.058-10.541-22.588-15.06l-135.53-138.54c-6.023-7.53-10.54-16.565-15.058-25.6l173.177 179.2z" fill="#F66B18" p-id="18710"></path><path d="M268.047 962.259c-7.53-3.012-13.553-7.53-21.082-12.047L69.27 769.506c-4.518-7.53-7.53-13.553-12.047-21.082l210.823 213.835z" fill="#F66713" p-id="18711"></path><path d="M286.118 971.294l-18.07-9.035L57.223 748.424c-3.012-6.024-6.024-12.048-7.53-16.565l236.424 239.435z m49.694 21.082c-16.565-6.023-33.13-13.552-48.188-21.082L49.694 730.353c-7.53-16.565-15.059-31.624-19.576-49.694l305.694 311.717z" fill="#F6640E" p-id="18712"></path><path d="M376.47 1005.93c-13.552-3.012-27.105-7.53-40.658-13.554L28.612 680.66c-4.518-13.553-9.036-27.106-12.047-40.659l359.906 365.93z" fill="#F46113" p-id="18713"></path><path d="M414.118 1014.965c-12.047-3.012-24.094-4.518-36.142-9.036L16.565 640c-3.012-12.047-6.024-24.094-7.53-37.647l405.083 412.612z" fill="#F25D19" p-id="18714"></path><path d="M447.247 1019.482c-12.047-1.506-22.588-3.011-33.13-6.023L7.53 602.353c-1.505-10.541-3.011-22.588-4.517-33.13l444.235 450.26z" fill="#F05A1E" p-id="18715"></path><path d="M478.87 1022.494c-10.54 0-21.082-1.506-31.623-3.012L3.012 569.224C1.506 558.682 1.506 548.14 0 537.6l478.87 484.894z" fill="#EE5723" p-id="18716"></path><path d="M507.482 1024h-28.611v-1.506L0 537.6v-28.612z" fill="#EC5328" p-id="18717"></path><path d="M536.094 1024h-28.612L0 508.988v-28.612h1.506L536.094 1024z" fill="#EA502E" p-id="18718"></path><path d="M561.694 1020.988c-9.035 1.506-18.07 1.506-27.106 1.506L0 480.376c0-9.035 1.506-18.07 3.012-27.105l558.682 567.717z" fill="#E84D33" p-id="18719"></path><path d="M587.294 1017.976c-9.035 1.506-16.565 1.506-25.6 3.012L3.012 454.776c0-9.035 1.506-16.564 3.012-25.6l581.27 588.8z" fill="#E54938" p-id="18720"></path><path d="M611.388 1014.965c-7.53 1.506-16.564 3.011-24.094 4.517L6.024 429.176c1.505-7.529 3.011-16.564 4.517-24.094l600.847 609.883z" fill="#E3463D" p-id="18721"></path><path d="M633.976 1008.941l-22.588 4.518L10.541 405.082c1.506-7.53 3.012-15.058 6.024-22.588l617.411 626.447z" fill="#E14343" p-id="18722"></path><path d="M656.565 1002.918c-7.53 3.011-15.06 4.517-22.589 6.023L16.565 380.988c1.506-7.53 4.517-15.059 6.023-22.588l633.977 644.518z" fill="#DF3F48" p-id="18723"></path><path d="M679.153 996.894c-7.53 3.012-15.059 4.518-21.082 7.53L22.588 359.906c1.506-7.53 4.518-15.059 7.53-21.082l649.035 658.07z" fill="#DD3C4D" p-id="18724"></path><path d="M698.73 989.365c-6.024 3.011-13.554 4.517-21.083 7.53L30.117 338.823c3.012-7.53 6.024-13.553 7.53-21.083L698.73 989.365z" fill="#DB3953" p-id="18725"></path><path d="M719.812 980.33c-6.024 3.011-13.553 6.023-19.577 9.035L37.647 317.74c3.012-6.023 6.024-13.553 9.035-19.576l673.13 682.164z" fill="#D93558" p-id="18726"></path><path d="M737.882 971.294c-6.023 3.012-13.553 6.024-19.576 9.035L46.682 298.165c3.012-6.024 6.024-13.553 9.036-19.577l682.164 692.706z" fill="#D7325D" p-id="18727"></path><path d="M757.459 960.753l-18.07 9.035L57.223 277.082c3.011-6.023 6.023-12.047 10.54-18.07l689.695 701.74z" fill="#D52E62" p-id="18728"></path><path d="M775.53 951.718c-6.024 3.011-12.048 7.53-18.071 10.54l-691.2-701.74c3.012-6.024 7.53-12.047 10.541-18.07l698.73 709.27z" fill="#D32B68" p-id="18729"></path><path d="M793.6 939.67c-6.024 3.012-12.047 7.53-18.07 10.542L76.8 242.447c3.012-6.023 7.53-12.047 12.047-18.07L793.6 939.67z" fill="#D1286D" p-id="18730"></path><path d="M810.165 929.13c-6.024 4.517-10.541 7.529-16.565 12.046l-706.259-716.8c3.012-6.023 7.53-10.54 12.047-16.564l710.777 721.317z" fill="#CF2472" p-id="18731"></path><path d="M826.73 915.576c-6.024 4.518-10.542 7.53-16.565 12.048L99.388 207.812c4.518-6.024 7.53-10.541 12.047-16.565l715.294 724.33z" fill="#CD2178" p-id="18732"></path><path d="M841.788 903.53c-4.517 4.517-10.54 9.035-15.059 12.046L112.941 192.753c4.518-6.024 9.035-10.541 13.553-15.059L841.788 903.53z" fill="#CB1E7D" p-id="18733"></path><path d="M856.847 889.976c-4.518 4.518-10.541 9.036-15.059 13.553l-716.8-727.34c4.518-4.518 9.036-10.542 13.553-15.06l718.306 728.847z" fill="#C81A82" p-id="18734"></path><path d="M871.906 876.424c-4.518 4.517-9.035 9.035-15.059 13.552L138.541 161.13c4.518-4.517 9.035-9.035 13.553-15.058l719.812 730.353z" fill="#C61787" p-id="18735"></path><path d="M885.459 861.365c-4.518 4.517-9.035 10.54-13.553 15.059L152.094 147.576c4.518-4.517 9.035-9.035 15.059-13.552l718.306 727.34z" fill="#C4148D" p-id="18736"></path><path d="M899.012 846.306c-4.518 4.518-9.036 10.541-13.553 15.059L167.153 132.518c4.518-4.518 10.541-9.036 15.059-13.553l716.8 727.34z" fill="#C21092" p-id="18737"></path><path d="M912.565 831.247c-4.518 4.518-9.036 10.541-13.553 15.059l-716.8-725.835c4.517-4.518 10.54-9.036 15.059-12.047l715.294 722.823z" fill="#C00D97" p-id="18738"></path><path d="M924.612 814.682c-4.518 6.024-7.53 10.542-12.047 16.565l-713.789-724.33c6.024-4.517 10.542-7.529 16.565-12.046l709.27 719.811z" fill="#BE0A9C" p-id="18739"></path><path d="M936.659 798.118c-3.012 6.023-7.53 12.047-12.047 16.564L215.342 94.871c4.517-4.518 10.54-7.53 16.564-12.047l704.753 715.294z" fill="#BC06A2" p-id="18740"></path><path d="M947.2 781.553c-3.012 6.023-7.53 12.047-12.047 18.07l-703.247-716.8c6.023-3.011 12.047-7.529 18.07-10.54L947.2 781.552z" fill="#BA03A7" p-id="18741"></path><path d="M966.776 748.424c-6.023 12.047-12.047 22.588-18.07 33.129L248.47 72.283c12.047-6.024 22.588-12.048 34.635-18.071l683.67 694.212z" fill="#BA03A7" p-id="18742"></path><path d="M983.341 712.282c-4.517 12.047-10.541 24.094-16.565 36.142L283.106 54.212c12.047-6.024 24.094-12.047 36.141-16.565l664.094 674.635z" fill="#B503A8" p-id="18743"></path><path d="M998.4 674.635c-4.518 13.553-9.035 25.6-15.059 37.647L319.247 37.647c12.047-4.518 25.6-9.035 37.647-13.553L751.435 424.66 998.4 674.635z" fill="#AF03A9" p-id="18744"></path><path d="M1008.941 633.976c-3.012 13.553-7.53 27.106-12.047 40.66L751.435 424.658 356.895 24.094c13.552-4.518 27.105-7.53 40.658-12.047l611.388 621.93z" fill="#AA03AB" p-id="18745"></path><path d="M1017.976 590.306c-3.011 15.059-4.517 30.118-9.035 43.67L397.553 12.047c15.059-3.012 28.612-6.023 43.67-7.53l576.753 585.789z" fill="#A502AC" p-id="18746"></path><path d="M1024 543.624l-3.012 22.588v4.517l-3.012 19.577L441.224 4.518C456.282 3.012 472.847 1.506 489.412 0L1024 543.624z" fill="#9F02AD" p-id="18747"></path><path d="M1024 490.918v52.706l-1.506-1.506L489.412 0h-1.506 52.706L1024 489.412v1.506z" fill="#9A02AE" p-id="18748"></path><path d="M1024 489.412L540.612 0c19.576 1.506 39.153 3.012 58.73 7.53l418.634 424.658c3.012 19.577 4.518 37.647 6.024 57.224z m0 1.506z" fill="#9502AF" p-id="18749"></path><path d="M1017.976 432.188L599.341 7.53c22.588 4.518 46.683 9.036 67.765 16.565l334.306 338.824c7.53 22.588 12.047 45.176 16.564 69.27z" fill="#8F02B1" p-id="18750"></path><path d="M1001.412 362.918l-332.8-338.824c31.623 10.541 61.74 22.588 88.847 37.647L965.27 272.565c15.058 28.611 27.105 58.73 36.14 90.353z" fill="#8A02B2" p-id="18751"></path><path d="M965.27 272.565L757.46 61.74c87.341 49.694 161.13 121.977 207.812 210.824z" fill="#8502B3" p-id="18752"></path><path d="M743.906 415.624c-1.506-37.648-10.541-70.777-37.647-97.883-27.106-27.106-60.235-36.141-97.883-37.647-39.152-1.506-155.105-1.506-192.752 0s-69.271 10.541-97.883 37.647c-27.106 27.106-36.141 60.235-37.647 97.883-1.506 39.152-1.506 155.105 0 192.752s10.541 69.271 37.647 97.883c28.612 27.106 60.235 36.141 97.883 37.647 39.152 1.506 155.105 1.506 192.752 0s70.777-10.541 97.883-37.647c27.106-28.612 36.141-60.235 37.647-97.883 3.012-39.152 3.012-153.6 0-192.752z m-49.694 233.411c-7.53 21.083-24.094 36.141-43.67 45.177-31.624 12.047-103.907 9.035-137.036 9.035-34.635 0-106.918 3.012-137.035-9.035-21.083-9.036-36.142-24.094-45.177-45.177C319.247 618.918 322.26 545.13 322.26 512c0-33.13-3.012-106.918 9.035-137.035 9.035-19.577 24.094-36.141 45.177-43.67 30.117-12.048 103.905-9.036 137.035-9.036 33.13 0 106.918-3.012 137.035 9.035 19.577 7.53 36.141 24.094 43.67 43.67 12.048 31.624 9.036 103.907 9.036 137.036 0 34.635 3.012 106.918-9.035 137.035z" fill="#FFFFFF" p-id="18753"></path><path d="M512 391.53c-66.259 0-120.47 54.211-120.47 120.47S444.234 632.47 512 632.47c66.259 0 120.47-52.705 120.47-120.47 0-66.259-54.211-120.47-120.47-120.47z m0 198.776c-42.165 0-78.306-34.635-78.306-78.306 0-42.165 34.635-76.8 78.306-76.8 42.165 0 76.8 34.635 76.8 76.8 1.506 43.67-33.13 78.306-76.8 78.306zM636.988 358.4c-15.059 0-28.612 12.047-28.612 28.612 0 15.059 12.048 28.612 28.612 28.612 15.06 0 28.612-12.048 28.612-28.612 0-15.06-13.553-28.612-28.612-28.612z" fill="#FFFFFF" p-id="18754"></path></svg>