<?xml version="1.0" standalone="no"?><!DOCTYPE svg PUBLIC "-//W3C//DTD SVG 1.1//EN" "http://www.w3.org/Graphics/SVG/1.1/DTD/svg11.dtd"><svg t="1716208086953" class="icon" viewBox="0 0 1024 1024" version="1.1" xmlns="http://www.w3.org/2000/svg" p-id="7518" xmlns:xlink="http://www.w3.org/1999/xlink" width="200" height="200"><path d="M1021.475485 514.767842c0 256.030416-189.774574 467.694257-436.315247 502.043881a514.331881 514.331881 0 0 1-151.77505-1.601901C192.035485 976.358653 7.685069 767.067248 7.685069 514.767842 7.685069 234.79002 234.658218 7.806733 514.615762 7.806733c279.967683 0 506.930693 226.973149 506.930693 506.95097h-0.07097z" fill="#1C1C1B" p-id="7519"></path><path d="M213.275881 231.383446l233.786297 312.573465L211.815921 798.111683h52.964119l205.976079-222.50202L637.161188 798.111683h180.183446L570.418693 467.947723 789.392475 231.383446h-52.95398L546.765307 436.29497 393.499881 231.383446H213.275881z m77.864555 39.003247h82.751366L739.409109 759.108436h-82.761505L291.130297 270.396832z" fill="#FFFFFF" p-id="7520"></path></svg>